<svg id="Layer_3" enable-background="new 0 0 64 64" height="512" viewBox="0 0 64 64" width="512" xmlns="http://www.w3.org/2000/svg"><g><path d="m58.142 13.446c.529-.679.858-1.521.858-2.446 0-2.206-1.794-4-4-4-1.005 0-1.914.385-2.618 1h-4.764c-.704-.615-1.613-1-2.618-1-2.206 0-4 1.794-4 4 0 .925.329 1.767.858 2.446l-.777 3.106c-.054.217-.081.44-.081.704 0 1.513 1.23 2.744 2.743 2.744 1.183 0 2.229-.754 2.603-1.875l1.374-4.125h4.559l1.375 4.125c.373 1.121 1.42 1.875 2.603 1.875 1.513 0 2.743-1.231 2.743-2.785 0-.223-.027-.446-.082-.666zm-3.142-4.446c1.103 0 2 .897 2 2s-.897 2-2 2c-.385 0-.742-.115-1.048-.304l-.004-.012-.011.004c-.561-.355-.937-.977-.937-1.688 0-1.103.897-2 2-2zm-3.858 3h-2.284c.084-.322.142-.653.142-1s-.058-.678-.142-1h2.284c-.084.322-.142.653-.142 1s.058.678.142 1zm-6.142-3c1.103 0 2 .897 2 2 0 .711-.376 1.333-.937 1.687l-.011-.004-.004.012c-.306.19-.663.305-1.048.305-1.103 0-2-.897-2-2s.897-2 2-2zm-1.257 9c-.41 0-.743-.333-.743-.785 0-.061.008-.123.021-.18l.576-2.302c.438.165.908.267 1.403.267.099 0 .192-.022.289-.029l-.84 2.521c-.101.304-.386.508-.706.508zm12.514 0c-.32 0-.604-.204-.706-.508l-.84-2.521c.097.007.19.029.289.029.495 0 .965-.102 1.403-.267l.575 2.299c.014.06.022.122.022.224 0 .411-.333.744-.743.744z"/><path d="m63 14c0-7.168-5.832-13-13-13-6.371 0-11.675 4.61-12.779 10.668-1.699-.435-3.449-.668-5.221-.668-11.579 0-21 9.42-21 21 0 1.773.232 3.523.668 5.221-6.058 1.104-10.668 6.408-10.668 12.779 0 7.168 5.832 13 13 13 6.371 0 11.675-4.61 12.779-10.668 1.699.435 3.449.668 5.221.668 11.579 0 21-9.42 21-21 0-1.774-.229-3.523-.663-5.222 6.055-1.105 10.663-6.408 10.663-12.778zm-25.647 2.939-1.353-1.353v-2.155c.341.073.679.16 1.016.252-.003.106-.016.21-.016.317 0 .99.125 1.972.353 2.939zm-11.353-2.953v2.6l-1.707 1.707c-.188.187-.293.442-.293.707v3.586l-2.414 2.414h-2.172l-1.707-1.707c-.187-.188-.441-.293-.707-.293h-1.727c2.28-4.22 6.115-7.473 10.727-9.014zm-12.962 19.014h2.548l1.707 1.707c.187.188.441.293.707.293h2v2c0 .098.029.191.056.284l-1.668.488c-1.422-.513-2.897-.772-4.388-.772-.107 0-.21.013-.316.016-.358-1.308-.575-2.651-.646-4.016zm.962 28c-6.065 0-11-4.935-11-11s4.935-11 11-11c1.355 0 2.696.255 3.986.757.208.081.434.091.645.028l7.896-2.312-2.312 7.896c-.062.211-.052.438.028.644.502 1.291.757 2.633.757 3.987 0 6.065-4.935 11-11 11zm12.229-15.388.179-.612h1.178l2.414 2.414v3.469c-1.022-.107-2.029-.296-3.016-.566.003-.107.016-.21.016-.317 0-1.49-.26-2.965-.771-4.388zm5.478.681-3-3c-.187-.188-.441-.293-.707-.293h-1.007l1.967-6.719c.103-.351.006-.729-.253-.988s-.639-.355-.988-.253l-5.619 1.645-.1-.099v-2.586c0-.552-.447-1-1-1h-2.586l-1.707-1.707c-.187-.188-.441-.293-.707-.293h-2.949c.111-2.109.557-4.127 1.302-6h2.233l1.707 1.707c.187.188.441.293.707.293h3c.266 0 .52-.105.707-.293l3-3c.188-.187.293-.442.293-.707v-3.586l1.707-1.707c.188-.187.293-.442.293-.707v-3.568c1.291-.278 2.627-.432 4-.432.671 0 1.337.048 2 .117v2.883c0 .265.105.52.293.707l3 3c.022.022.053.032.077.052l-2.33 7.961c-.103.351-.006.729.253.988.19.189.445.292.707.292.094 0 .188-.013.281-.04l9.33-2.732c1.296.467 2.636.713 3.992.755l-1.017 1.017h-2.586c-.553 0-1 .448-1 1v3.586l-2.707 2.707c-.188.187-.293.442-.293.707v2.586l-1.707 1.707c-.188.187-.293.442-.293.707v4c0 .265.105.52.293.707l2.149 2.149c-2.999 1.982-6.586 3.144-10.442 3.144v-4c0-.265-.105-.52-.293-.707zm12.367.367-2.074-2.074v-3.172l1.707-1.707c.188-.187.293-.442.293-.707v-2.586l2.707-2.707c.188-.187.293-.442.293-.707v-3h2c.266 0 .52-.105.707-.293l1-1c.189 1.082.293 2.182.293 3.293 0 5.895-2.699 11.172-6.926 14.66zm5.926-21.66c-1.355 0-2.696-.255-3.986-.757-.207-.081-.434-.091-.645-.028l-7.896 2.312 2.312-7.896c.062-.211.052-.438-.028-.644-.502-1.291-.757-2.633-.757-3.987 0-6.065 4.935-11 11-11s11 4.935 11 11-4.935 11-11 11z"/><path d="m19 43c-1.005 0-1.914.385-2.618 1h-4.764c-.703-.615-1.612-1-2.618-1-2.206 0-4 1.794-4 4 0 .925.329 1.767.858 2.446l-.777 3.106c-.054.217-.081.44-.081.704 0 1.513 1.23 2.744 2.743 2.744 1.183 0 2.229-.754 2.603-1.875l1.374-4.125h4.559l1.375 4.125c.373 1.121 1.42 1.875 2.603 1.875 1.513 0 2.743-1.231 2.743-2.785 0-.223-.027-.446-.082-.666l-.776-3.103c.529-.679.858-1.521.858-2.446 0-2.206-1.794-4-4-4zm0 2c1.103 0 2 .897 2 2s-.897 2-2 2c-.385 0-.742-.115-1.048-.304l-.004-.012-.011.004c-.561-.355-.937-.977-.937-1.688 0-1.103.897-2 2-2zm-3.858 3h-2.284c.084-.322.142-.653.142-1s-.058-.678-.142-1h2.284c-.084.322-.142.653-.142 1s.058.678.142 1zm-6.142-3c1.103 0 2 .897 2 2 0 .711-.376 1.333-.937 1.687l-.011-.004-.004.012c-.306.19-.663.305-1.048.305-1.103 0-2-.897-2-2s.897-2 2-2zm-1.257 9c-.41 0-.743-.333-.743-.785 0-.061.008-.123.021-.18l.576-2.302c.438.165.908.267 1.403.267.099 0 .192-.022.289-.029l-.84 2.521c-.101.304-.386.508-.706.508zm12.514 0c-.32 0-.604-.204-.706-.508l-.84-2.521c.097.007.19.029.289.029.495 0 .965-.102 1.403-.267l.575 2.299c.014.06.022.122.022.224 0 .411-.333.744-.743.744z"/><path d="m36 37c.553 0 1-.448 1-1v-3c0-.265-.105-.52-.293-.707l-2.707-2.707v-2.586c0-.552-.447-1-1-1h-3c-.266 0-.52.105-.707.293l-3 3c-.188.187-.293.442-.293.707v3c0 .552.447 1 1 1h1.586l2.707 2.707c.187.188.441.293.707.293zm-6.293-4.707c-.187-.188-.441-.293-.707-.293h-1v-1.586l2.414-2.414h1.586v2c0 .265.105.52.293.707l2.707 2.707v1.586h-2.586z"/></g></svg>